<svg id="Layer_1" data-name="Layer 1" xmlns="http://www.w3.org/2000/svg" viewBox="0 0 734.4672 104.7767">
  <path id="fullLogo" d="M0,2.3886A2.3862,2.3862,0,0,1,2.3862.0024h100.92c22.4835,0,36.2969,11.3152,36.2969,30.2719,0,20.4262-13.8134,27.7738-36.2969,29.6841L85.0053,61.64a2.3862,2.3862,0,0,0-.7786,4.5442l69.8674,32.13a2.3862,2.3862,0,0,1-.997,4.5542H118.085a2.3863,2.3863,0,0,1-1-.22L37.9088,66.1057a2.3874,2.3874,0,0,0-1.2228-.2093l-11.3043,1.06a2.3863,2.3863,0,0,0-2.1635,2.3759v31.15a2.3862,2.3862,0,0,1-2.3862,2.3863H2.3862A2.3863,2.3863,0,0,1,0,100.4819ZM23.2182,23.2557v21.748a2.3863,2.3863,0,0,0,2.6,2.3766l78.9576-7.1133c7.0536-.5878,11.9029-3.38,11.9029-9.9927,0-6.76-4.8493-9.4049-11.9029-9.4049H25.6045A2.3863,2.3863,0,0,0,23.2182,23.2557ZM180.03.0024H291.4954a2.3862,2.3862,0,0,1,2.3862,2.3862V18.4832a2.3862,2.3862,0,0,1-2.3862,2.3862H203.2478a2.3863,2.3863,0,0,0-2.3863,2.3863v14.772a2.3862,2.3862,0,0,0,2.3863,2.3862h64.1475A2.3863,2.3863,0,0,1,269.7816,42.8V58.4539a2.3863,2.3863,0,0,1-2.3863,2.3863H203.2478a2.3862,2.3862,0,0,0-2.3863,2.3862V79.6149a2.3862,2.3862,0,0,0,2.3863,2.3862h88.2476a2.3862,2.3862,0,0,1,2.3862,2.3862v16.0946a2.3862,2.3862,0,0,1-2.3862,2.3863H180.03a2.3862,2.3862,0,0,1-2.3862-2.3863V2.3886A2.3862,2.3862,0,0,1,180.03.0024Zm229.361,42.9128-44.3793-6.7666c-16.6-2.5164-26.8553-5.8845-29.4618-11.97a2.3911,2.3911,0,0,1,2.2154-3.308h49.2006a2.2612,2.2612,0,0,0,.4508.04h31.1966a2.5627,2.5627,0,0,0,2.5565-2.5664V2.5561A2.5543,2.5543,0,0,0,418.6128,0H344.7321c-20.28,0-31.7379,5.5835-31.7379,22.4853v3.97c0,15.7182,16.17,25.2719,39.968,28.8l50.5535,7.6388c10.2855,1.6241,15.2875,3.3882,15.2875,8.6716V73.62c0,6.3255-9.7035,10.1449-39.0958,10.2952-24.2293,0-43.5363-4.9222-47.6568-20.42a2.3712,2.3712,0,0,0-2.2956-1.7744H311.5708a2.39,2.39,0,0,0-2.376,2.6065c2.6467,28.2689,32.43,40.4492,70.6629,40.4492,40.1183,0,61.5712-10.4358,61.5712-29.5323V68.9188C441.4289,54.5237,429.9706,46.0028,409.3905,42.9152Zm150.7087,59.953H458.92a2.3862,2.3862,0,0,1-2.3862-2.3863V2.3886A2.3862,2.3862,0,0,1,458.92.0024h18.4458a2.3862,2.3862,0,0,1,2.3862,2.3862V79.6149a2.3862,2.3862,0,0,0,2.3863,2.3862h77.9609a2.3862,2.3862,0,0,1,2.3862,2.3862v16.0946A2.3862,2.3862,0,0,1,560.0992,102.8682ZM694.2539,77.0048h-74.68a2.3864,2.3864,0,0,0-2.07,1.1985L604.0382,101.67a2.3861,2.3861,0,0,1-2.07,1.1986H582.3438a2.3862,2.3862,0,0,1-2.0692-3.5746L636.6082,1.2A2.3862,2.3862,0,0,1,638.6775.0024h36.4733A2.3861,2.3861,0,0,1,677.22,1.2l56.3337,98.0933a2.3863,2.3863,0,0,1-2.0693,3.5746H711.86a2.3862,2.3862,0,0,1-2.07-1.1986L696.3236,78.2033A2.3864,2.3864,0,0,0,694.2539,77.0048ZM681.9785,53.1526,659.0523,13.1561a2.3863,2.3863,0,0,0-4.1377-.0048l-23.051,39.9965a2.3862,2.3862,0,0,0,2.0675,3.5777h45.9772A2.3862,2.3862,0,0,0,681.9785,53.1526Z"/>
</svg>
